# xmcd
#
# Track frame offsets:
#	150
#	11163
#	21612
#	33865
#	44929
#	57239
#	67734
#	79194
#	90442
#	100169
#	111269
#	120124
#	129773
#	140570
#	150718
#	162254
#
# Disc length: 2337 seconds
#
# Revision: 1
# Processed by: cddbd v1.5.2PL0 Copyright (c) Steve Scherf et al.
# Submitted via: audiograbber 1.83.01
#
DISCID=cb091f10
DTITLE=Jimmie Skinner - Another Saturday Night
DYEAR=1900
DGENRE=
TTITLE0=Jimmie Skinner and Connie Hall - Lonesome At Your Table
TTITLE1=Jimmie Skinner and Connie Hall - Where Do We Go From Here
TTITLE2=Jimmie Skinner and Connie Hall - We've Got Things In Common
TTITLE3=Jimmie Skinner and Connie Hall - Married To A Friend
TTITLE4=Jimmie Skinner - Just Ramblin' On
TTITLE5=Jimmie Skinner - No Fault Of Mine
TTITLE6=Jimmie Skinner - Hafta Do Somethin' 'Bout THat
TTITLE7=Jimmie Skinner - Another Saturday Night
TTITLE8=Jimmie Skinner - Please Don't Send Cecil Away
TTITLE9=Jimmie Skinner - Reasons To Live
TTITLE10=Jimmie Skinner - Big City
TTITLE11=Jimmie Skinner - Walkin' My Blues Away
TTITLE12=Jimmie Skinner - Two Squares Away
TTITLE13=Jimmie Skinner - Temptation Smiles
TTITLE14=Jimmie Skinner - John Wesley Hardin
TTITLE15=Jimmie Skinner - I Found My Girl In The U.S.A.
EXTD=
EXTT0=
EXTT1=
EXTT2=
EXTT3=
EXTT4=
EXTT5=
EXTT6=
EXTT7=
EXTT8=
EXTT9=
EXTT10=
EXTT11=
EXTT12=
EXTT13=
EXTT14=
EXTT15=
PLAYORDER=
